<svg width="120" height="109" viewBox="0 0 120 109" fill="none" xmlns="http://www.w3.org/2000/svg">
<path d="M56.8176 105.846V60.4833H25.0486V105.846H0V0H25.0486V40.9331H56.8176V0H81.8663V105.846H56.8176Z" fill="white"/>
<path d="M106.254 80.7971C110.021 80.7971 113.229 82.1718 115.876 84.921C118.625 87.5684 120 90.7759 120 94.5433C120 98.4126 118.625 101.722 115.876 104.471C113.229 107.119 110.021 108.442 106.254 108.442C102.384 108.442 99.0752 107.119 96.326 104.471C93.6786 101.722 92.3548 98.4126 92.3548 94.5433C92.3548 90.7759 93.6786 87.5684 96.326 84.921C99.0752 82.1718 102.384 80.7971 106.254 80.7971Z" fill="url(#paint0_linear_302_3)"/>
<defs>
<linearGradient id="paint0_linear_302_3" x1="60" y1="0" x2="60" y2="108.442" gradientUnits="userSpaceOnUse">
<stop stop-color="#29C74B"/>
<stop offset="1" stop-color="#9BFF6B"/>
</linearGradient>
</defs>
</svg>
